<mxfile host="app.diagrams.net" agent="Mozilla/5.0 (Windows NT 10.0; Win64; x64) AppleWebKit/537.36 (KHTML, like Gecko) Chrome/131.0.0.0 Safari/537.36" version="24.8.9">
  <diagram name="Page-1" id="WkjT4jGh175XT297SX8B">
    <mxGraphModel dx="3850" dy="1591" grid="1" gridSize="10" guides="1" tooltips="1" connect="1" arrows="1" fold="1" page="1" pageScale="1" pageWidth="850" pageHeight="1100" math="0" shadow="0">
      <root>
        <mxCell id="0" />
        <mxCell id="1" parent="0" />
        <mxCell id="YwqZ9izYmUvDD3IAqNH3-1" value="start" style="ellipse;whiteSpace=wrap;html=1;" parent="1" vertex="1">
          <mxGeometry x="180" y="10" width="120" height="50" as="geometry" />
        </mxCell>
        <mxCell id="YwqZ9izYmUvDD3IAqNH3-9" value="Declarations&lt;br&gt;num OulOfTolerance = 0&lt;br&gt;boolean continueInput = true&lt;br&gt;num Diameter&amp;nbsp;&lt;div&gt;num&amp;nbsp;&lt;span style=&quot;background-color: initial;&quot;&gt;Height&amp;nbsp;&lt;/span&gt;&lt;div&gt;num withinTolerance&lt;/div&gt;&lt;div&gt;BatteryChecker batter Checker&lt;/div&gt;&lt;div&gt;Batterry battery&lt;br&gt;&lt;div&gt;&lt;br&gt;&lt;/div&gt;&lt;/div&gt;&lt;/div&gt;" style="rounded=0;whiteSpace=wrap;html=1;align=left;" parent="1" vertex="1">
          <mxGeometry x="130" y="80" width="230" height="150" as="geometry" />
        </mxCell>
        <mxCell id="YwqZ9izYmUvDD3IAqNH3-14" value="&lt;br&gt;&lt;span style=&quot;color: rgb(0, 0, 0); font-family: Helvetica; font-size: 12px; font-style: normal; font-variant-ligatures: normal; font-variant-caps: normal; font-weight: 400; letter-spacing: normal; orphans: 2; text-align: left; text-indent: 0px; text-transform: none; widows: 2; word-spacing: 0px; -webkit-text-stroke-width: 0px; white-space: normal; background-color: rgb(251, 251, 251); text-decoration-thickness: initial; text-decoration-style: initial; text-decoration-color: initial; display: inline !important; float: none;&quot;&gt;continueInput&lt;span&gt;&amp;nbsp;&lt;/span&gt;&lt;/span&gt;&lt;br&gt;=&lt;div&gt;true&lt;span style=&quot;white-space: pre;&quot;&gt;&#x9;&lt;/span&gt;&lt;/div&gt;" style="rhombus;whiteSpace=wrap;html=1;" parent="1" vertex="1">
          <mxGeometry x="140" y="240" width="200" height="150" as="geometry" />
        </mxCell>
        <mxCell id="YwqZ9izYmUvDD3IAqNH3-15" value="yes" style="rounded=0;whiteSpace=wrap;html=1;" parent="1" vertex="1">
          <mxGeometry x="320" y="340" width="60" height="30" as="geometry" />
        </mxCell>
        <mxCell id="YwqZ9izYmUvDD3IAqNH3-20" value="no" style="rounded=0;whiteSpace=wrap;html=1;" parent="1" vertex="1">
          <mxGeometry x="130" y="340" width="30" height="30" as="geometry" />
        </mxCell>
        <mxCell id="YwqZ9izYmUvDD3IAqNH3-21" value="output &quot;Entor battery dimonsions (expected: D:&quot;, Battory EXPECTED _DIAMETER, &quot;H: *, Battory EXPECTED _HEIGHT" style="shape=parallelogram;perimeter=parallelogramPerimeter;whiteSpace=wrap;html=1;fixedSize=1;" parent="1" vertex="1">
          <mxGeometry x="-80" y="400" width="690" height="60" as="geometry" />
        </mxCell>
        <mxCell id="YwqZ9izYmUvDD3IAqNH3-22" style="edgeStyle=orthogonalEdgeStyle;rounded=0;orthogonalLoop=1;jettySize=auto;html=1;exitX=0.75;exitY=1;exitDx=0;exitDy=0;entryX=1;entryY=0.75;entryDx=0;entryDy=0;" parent="1" source="YwqZ9izYmUvDD3IAqNH3-15" target="YwqZ9izYmUvDD3IAqNH3-15" edge="1">
          <mxGeometry relative="1" as="geometry" />
        </mxCell>
        <mxCell id="NKX4KF4Ma1qlsxODVfHI-11" value="" style="edgeStyle=orthogonalEdgeStyle;rounded=0;orthogonalLoop=1;jettySize=auto;html=1;" edge="1" parent="1" source="YwqZ9izYmUvDD3IAqNH3-24" target="YwqZ9izYmUvDD3IAqNH3-25">
          <mxGeometry relative="1" as="geometry" />
        </mxCell>
        <mxCell id="YwqZ9izYmUvDD3IAqNH3-24" value="batteryDiameter = User.inputDouble(&quot;Enter battery diameter: &quot;)" style="shape=process;whiteSpace=wrap;html=1;backgroundOutline=1;size=0.08163265306122448;" parent="1" vertex="1">
          <mxGeometry x="5" y="480" width="490" height="40" as="geometry" />
        </mxCell>
        <mxCell id="NKX4KF4Ma1qlsxODVfHI-10" value="" style="edgeStyle=orthogonalEdgeStyle;rounded=0;orthogonalLoop=1;jettySize=auto;html=1;" edge="1" parent="1" source="YwqZ9izYmUvDD3IAqNH3-25" target="YwqZ9izYmUvDD3IAqNH3-26">
          <mxGeometry relative="1" as="geometry" />
        </mxCell>
        <mxCell id="YwqZ9izYmUvDD3IAqNH3-25" value="batteryDiameter = User.inputDouble(&quot;Enter battery height: &quot;)" style="shape=process;whiteSpace=wrap;html=1;backgroundOutline=1;" parent="1" vertex="1">
          <mxGeometry x="5" y="540" width="490" height="40" as="geometry" />
        </mxCell>
        <mxCell id="NKX4KF4Ma1qlsxODVfHI-7" value="" style="edgeStyle=orthogonalEdgeStyle;rounded=0;orthogonalLoop=1;jettySize=auto;html=1;" edge="1" parent="1" source="YwqZ9izYmUvDD3IAqNH3-26" target="YwqZ9izYmUvDD3IAqNH3-27">
          <mxGeometry relative="1" as="geometry" />
        </mxCell>
        <mxCell id="NKX4KF4Ma1qlsxODVfHI-8" style="edgeStyle=orthogonalEdgeStyle;rounded=0;orthogonalLoop=1;jettySize=auto;html=1;exitX=0.5;exitY=1;exitDx=0;exitDy=0;" edge="1" parent="1" source="YwqZ9izYmUvDD3IAqNH3-26" target="YwqZ9izYmUvDD3IAqNH3-27">
          <mxGeometry relative="1" as="geometry" />
        </mxCell>
        <mxCell id="YwqZ9izYmUvDD3IAqNH3-26" value="&lt;br&gt;&lt;span style=&quot;color: rgb(0, 0, 0); font-family: Helvetica; font-size: 12px; font-style: normal; font-variant-ligatures: normal; font-variant-caps: normal; font-weight: 400; letter-spacing: normal; orphans: 2; text-align: center; text-indent: 0px; text-transform: none; widows: 2; word-spacing: 0px; -webkit-text-stroke-width: 0px; white-space: normal; background-color: rgb(251, 251, 251); text-decoration-thickness: initial; text-decoration-style: initial; text-decoration-color: initial; display: inline !important; float: none;&quot;&gt;battery.setDiameter(battery Diameter)&lt;/span&gt;&lt;div&gt;&lt;br&gt;&lt;/div&gt;" style="shape=process;whiteSpace=wrap;html=1;backgroundOutline=1;" parent="1" vertex="1">
          <mxGeometry x="5" y="610" width="490" height="30" as="geometry" />
        </mxCell>
        <mxCell id="NKX4KF4Ma1qlsxODVfHI-9" value="" style="edgeStyle=orthogonalEdgeStyle;rounded=0;orthogonalLoop=1;jettySize=auto;html=1;" edge="1" parent="1" source="YwqZ9izYmUvDD3IAqNH3-27" target="YwqZ9izYmUvDD3IAqNH3-28">
          <mxGeometry relative="1" as="geometry" />
        </mxCell>
        <mxCell id="YwqZ9izYmUvDD3IAqNH3-27" value="&lt;br&gt;&lt;span style=&quot;color: rgb(0, 0, 0); font-family: Helvetica; font-size: 12px; font-style: normal; font-variant-ligatures: normal; font-variant-caps: normal; font-weight: 400; letter-spacing: normal; orphans: 2; text-align: center; text-indent: 0px; text-transform: none; widows: 2; word-spacing: 0px; -webkit-text-stroke-width: 0px; white-space: normal; background-color: rgb(251, 251, 251); text-decoration-thickness: initial; text-decoration-style: initial; text-decoration-color: initial; display: inline !important; float: none;&quot;&gt;battery.setHeight(batteryHeight)&lt;/span&gt;&lt;div&gt;&lt;br/&gt;&lt;/div&gt;" style="shape=process;whiteSpace=wrap;html=1;backgroundOutline=1;" parent="1" vertex="1">
          <mxGeometry x="5" y="660" width="490" height="40" as="geometry" />
        </mxCell>
        <mxCell id="NKX4KF4Ma1qlsxODVfHI-6" value="" style="edgeStyle=orthogonalEdgeStyle;rounded=0;orthogonalLoop=1;jettySize=auto;html=1;" edge="1" parent="1" source="YwqZ9izYmUvDD3IAqNH3-28" target="YwqZ9izYmUvDD3IAqNH3-29">
          <mxGeometry relative="1" as="geometry" />
        </mxCell>
        <mxCell id="YwqZ9izYmUvDD3IAqNH3-28" value="&lt;br&gt;&lt;span style=&quot;color: rgb(0, 0, 0); font-family: Helvetica; font-size: 12px; font-style: normal; font-variant-ligatures: normal; font-variant-caps: normal; font-weight: 400; letter-spacing: normal; orphans: 2; text-align: center; text-indent: 0px; text-transform: none; widows: 2; word-spacing: 0px; -webkit-text-stroke-width: 0px; white-space: normal; background-color: rgb(251, 251, 251); text-decoration-thickness: initial; text-decoration-style: initial; text-decoration-color: initial; display: inline !important; float: none;&quot;&gt;output battery.toString()&lt;/span&gt;&lt;div&gt;&lt;br/&gt;&lt;/div&gt;" style="shape=parallelogram;perimeter=parallelogramPerimeter;whiteSpace=wrap;html=1;fixedSize=1;" parent="1" vertex="1">
          <mxGeometry x="5" y="720" width="490" height="50" as="geometry" />
        </mxCell>
        <mxCell id="NKX4KF4Ma1qlsxODVfHI-13" value="" style="edgeStyle=orthogonalEdgeStyle;rounded=0;orthogonalLoop=1;jettySize=auto;html=1;" edge="1" parent="1" source="YwqZ9izYmUvDD3IAqNH3-29" target="YwqZ9izYmUvDD3IAqNH3-30">
          <mxGeometry relative="1" as="geometry" />
        </mxCell>
        <mxCell id="YwqZ9izYmUvDD3IAqNH3-29" value="&#xa;&lt;span style=&quot;color: rgb(0, 0, 0); font-family: Helvetica; font-size: 12px; font-style: normal; font-variant-ligatures: normal; font-variant-caps: normal; font-weight: 400; letter-spacing: normal; orphans: 2; text-align: center; text-indent: 0px; text-transform: none; widows: 2; word-spacing: 0px; -webkit-text-stroke-width: 0px; white-space: normal; background-color: rgb(251, 251, 251); text-decoration-thickness: initial; text-decoration-style: initial; text-decoration-color: initial; display: inline !important; float: none;&quot;&gt;isWithinTolerance = batteryChecker.checkWithinTolerance(battery)&lt;/span&gt;&#xa;&#xa;" style="shape=process;whiteSpace=wrap;html=1;backgroundOutline=1;size=0.057692307692307696;" parent="1" vertex="1">
          <mxGeometry x="-10" y="790" width="520" height="60" as="geometry" />
        </mxCell>
        <mxCell id="NKX4KF4Ma1qlsxODVfHI-20" value="" style="edgeStyle=orthogonalEdgeStyle;rounded=0;orthogonalLoop=1;jettySize=auto;html=1;" edge="1" parent="1" source="YwqZ9izYmUvDD3IAqNH3-30" target="YwqZ9izYmUvDD3IAqNH3-32">
          <mxGeometry relative="1" as="geometry" />
        </mxCell>
        <mxCell id="NKX4KF4Ma1qlsxODVfHI-24" value="" style="edgeStyle=orthogonalEdgeStyle;rounded=0;orthogonalLoop=1;jettySize=auto;html=1;" edge="1" parent="1" source="YwqZ9izYmUvDD3IAqNH3-30" target="YwqZ9izYmUvDD3IAqNH3-31">
          <mxGeometry relative="1" as="geometry" />
        </mxCell>
        <mxCell id="NKX4KF4Ma1qlsxODVfHI-26" value="" style="edgeStyle=orthogonalEdgeStyle;rounded=0;orthogonalLoop=1;jettySize=auto;html=1;" edge="1" parent="1" source="YwqZ9izYmUvDD3IAqNH3-30" target="YwqZ9izYmUvDD3IAqNH3-36">
          <mxGeometry relative="1" as="geometry" />
        </mxCell>
        <mxCell id="YwqZ9izYmUvDD3IAqNH3-30" value="WithinTolerance&lt;div&gt;=&lt;/div&gt;&lt;div&gt;true&lt;/div&gt;" style="rhombus;whiteSpace=wrap;html=1;" parent="1" vertex="1">
          <mxGeometry x="155" y="870" width="190" height="160" as="geometry" />
        </mxCell>
        <mxCell id="NKX4KF4Ma1qlsxODVfHI-25" value="" style="edgeStyle=orthogonalEdgeStyle;rounded=0;orthogonalLoop=1;jettySize=auto;html=1;" edge="1" parent="1" source="YwqZ9izYmUvDD3IAqNH3-31" target="YwqZ9izYmUvDD3IAqNH3-34">
          <mxGeometry relative="1" as="geometry" />
        </mxCell>
        <mxCell id="YwqZ9izYmUvDD3IAqNH3-31" value="yes" style="rounded=0;whiteSpace=wrap;html=1;" parent="1" vertex="1">
          <mxGeometry x="380" y="935" width="60" height="30" as="geometry" />
        </mxCell>
        <mxCell id="NKX4KF4Ma1qlsxODVfHI-21" value="" style="edgeStyle=orthogonalEdgeStyle;rounded=0;orthogonalLoop=1;jettySize=auto;html=1;" edge="1" parent="1" source="YwqZ9izYmUvDD3IAqNH3-32" target="YwqZ9izYmUvDD3IAqNH3-33">
          <mxGeometry relative="1" as="geometry" />
        </mxCell>
        <mxCell id="YwqZ9izYmUvDD3IAqNH3-32" value="no" style="rounded=0;whiteSpace=wrap;html=1;" parent="1" vertex="1">
          <mxGeometry x="50" y="935" width="60" height="30" as="geometry" />
        </mxCell>
        <mxCell id="NKX4KF4Ma1qlsxODVfHI-22" value="" style="edgeStyle=orthogonalEdgeStyle;rounded=0;orthogonalLoop=1;jettySize=auto;html=1;" edge="1" parent="1" source="YwqZ9izYmUvDD3IAqNH3-33" target="YwqZ9izYmUvDD3IAqNH3-35">
          <mxGeometry relative="1" as="geometry" />
        </mxCell>
        <mxCell id="YwqZ9izYmUvDD3IAqNH3-33" value="output &quot;The battery is not within tolerance.&quot;" style="shape=parallelogram;perimeter=parallelogramPerimeter;whiteSpace=wrap;html=1;fixedSize=1;" parent="1" vertex="1">
          <mxGeometry x="-340" y="980" width="380" height="50" as="geometry" />
        </mxCell>
        <mxCell id="YwqZ9izYmUvDD3IAqNH3-34" value="output &quot;The battery is within tolerance.&quot;" style="shape=parallelogram;perimeter=parallelogramPerimeter;whiteSpace=wrap;html=1;fixedSize=1;" parent="1" vertex="1">
          <mxGeometry x="310" y="1010" width="350" height="50" as="geometry" />
        </mxCell>
        <mxCell id="YwqZ9izYmUvDD3IAqNH3-35" value="totalOutO/Tolerance++" style="rounded=0;whiteSpace=wrap;html=1;" parent="1" vertex="1">
          <mxGeometry x="-265" y="1075" width="230" height="50" as="geometry" />
        </mxCell>
        <mxCell id="NKX4KF4Ma1qlsxODVfHI-31" value="" style="edgeStyle=orthogonalEdgeStyle;rounded=0;orthogonalLoop=1;jettySize=auto;html=1;" edge="1" parent="1" source="YwqZ9izYmUvDD3IAqNH3-36" target="YwqZ9izYmUvDD3IAqNH3-37">
          <mxGeometry relative="1" as="geometry" />
        </mxCell>
        <mxCell id="YwqZ9izYmUvDD3IAqNH3-36" value="output &quot; programmed by Harpreet Singh&quot;" style="shape=parallelogram;perimeter=parallelogramPerimeter;whiteSpace=wrap;html=1;fixedSize=1;" parent="1" vertex="1">
          <mxGeometry x="50" y="1090" width="400" height="60" as="geometry" />
        </mxCell>
        <mxCell id="YwqZ9izYmUvDD3IAqNH3-37" value="continueResponse = User.inputString/&quot;Continue checking? (e.g.: YES) &quot;)" style="shape=process;whiteSpace=wrap;html=1;backgroundOutline=1;size=0.07017543859649122;" parent="1" vertex="1">
          <mxGeometry x="-35" y="1180" width="570" height="60" as="geometry" />
        </mxCell>
        <mxCell id="YwqZ9izYmUvDD3IAqNH3-38" value="output &quot;Total out of tolerance: &quot;, totalOutO Tolerance" style="shape=parallelogram;perimeter=parallelogramPerimeter;whiteSpace=wrap;html=1;fixedSize=1;" parent="1" vertex="1">
          <mxGeometry x="20" y="1290" width="460" height="60" as="geometry" />
        </mxCell>
        <mxCell id="YwqZ9izYmUvDD3IAqNH3-39" value="stop" style="ellipse;whiteSpace=wrap;html=1;" parent="1" vertex="1">
          <mxGeometry x="190" y="1390" width="120" height="50" as="geometry" />
        </mxCell>
        <mxCell id="YwqZ9izYmUvDD3IAqNH3-40" value="Proceeds to no if continueResponse&lt;br&gt;= &quot;Yes&quot; (Ignoring case), otherwise proceeds to yes and set continueChecking=&lt;div&gt;false&lt;/div&gt;" style="shape=note;whiteSpace=wrap;html=1;backgroundOutline=1;darkOpacity=0.05;" parent="1" vertex="1">
          <mxGeometry x="880" y="715" width="120" height="135" as="geometry" />
        </mxCell>
        <mxCell id="YwqZ9izYmUvDD3IAqNH3-41" value="cantinueChecking = false" style="rounded=0;whiteSpace=wrap;html=1;" parent="1" vertex="1">
          <mxGeometry x="540" y="880" width="140" height="40" as="geometry" />
        </mxCell>
        <mxCell id="NKX4KF4Ma1qlsxODVfHI-27" value="" style="edgeStyle=orthogonalEdgeStyle;rounded=0;orthogonalLoop=1;jettySize=auto;html=1;" edge="1" parent="1" source="YwqZ9izYmUvDD3IAqNH3-44" target="YwqZ9izYmUvDD3IAqNH3-38">
          <mxGeometry relative="1" as="geometry">
            <Array as="points">
              <mxPoint x="860" y="1320" />
            </Array>
          </mxGeometry>
        </mxCell>
        <mxCell id="NKX4KF4Ma1qlsxODVfHI-30" value="" style="edgeStyle=orthogonalEdgeStyle;rounded=0;orthogonalLoop=1;jettySize=auto;html=1;" edge="1" parent="1" source="YwqZ9izYmUvDD3IAqNH3-43" target="YwqZ9izYmUvDD3IAqNH3-37">
          <mxGeometry relative="1" as="geometry">
            <Array as="points">
              <mxPoint x="810" y="1000" />
              <mxPoint x="810" y="1270" />
              <mxPoint x="250" y="1270" />
            </Array>
          </mxGeometry>
        </mxCell>
        <mxCell id="YwqZ9izYmUvDD3IAqNH3-43" value="yes" style="rounded=0;whiteSpace=wrap;html=1;" parent="1" vertex="1">
          <mxGeometry x="670" y="980" width="40" height="30" as="geometry" />
        </mxCell>
        <mxCell id="YwqZ9izYmUvDD3IAqNH3-45" value="while loop" style="shape=note;whiteSpace=wrap;html=1;backgroundOutline=1;darkOpacity=0.05;direction=east;" parent="1" vertex="1">
          <mxGeometry x="395" y="210" width="105" height="50" as="geometry" />
        </mxCell>
        <mxCell id="YwqZ9izYmUvDD3IAqNH3-46" value="flowchart by&lt;div&gt;Harpreet Singh&lt;/div&gt;" style="shape=note;whiteSpace=wrap;html=1;backgroundOutline=1;darkOpacity=0.05;" parent="1" vertex="1">
          <mxGeometry x="650" y="50" width="170" height="100" as="geometry" />
        </mxCell>
        <mxCell id="NKX4KF4Ma1qlsxODVfHI-2" value="" style="endArrow=classic;html=1;rounded=0;" edge="1" parent="1">
          <mxGeometry width="50" height="50" relative="1" as="geometry">
            <mxPoint x="239.5" y="50" as="sourcePoint" />
            <mxPoint x="239.5" y="90" as="targetPoint" />
          </mxGeometry>
        </mxCell>
        <mxCell id="NKX4KF4Ma1qlsxODVfHI-3" value="" style="endArrow=classic;html=1;rounded=0;exitX=0.5;exitY=1;exitDx=0;exitDy=0;" edge="1" parent="1" source="YwqZ9izYmUvDD3IAqNH3-9" target="YwqZ9izYmUvDD3IAqNH3-14">
          <mxGeometry width="50" height="50" relative="1" as="geometry">
            <mxPoint x="310" y="240" as="sourcePoint" />
            <mxPoint x="360" y="190" as="targetPoint" />
          </mxGeometry>
        </mxCell>
        <mxCell id="NKX4KF4Ma1qlsxODVfHI-5" style="edgeStyle=orthogonalEdgeStyle;rounded=0;orthogonalLoop=1;jettySize=auto;html=1;exitX=0.5;exitY=1;exitDx=0;exitDy=0;entryX=0.525;entryY=0.025;entryDx=0;entryDy=0;entryPerimeter=0;" edge="1" parent="1" source="YwqZ9izYmUvDD3IAqNH3-21" target="YwqZ9izYmUvDD3IAqNH3-24">
          <mxGeometry relative="1" as="geometry" />
        </mxCell>
        <mxCell id="NKX4KF4Ma1qlsxODVfHI-29" style="edgeStyle=orthogonalEdgeStyle;rounded=0;orthogonalLoop=1;jettySize=auto;html=1;exitX=0.25;exitY=0;exitDx=0;exitDy=0;entryX=0.5;entryY=0;entryDx=0;entryDy=0;" edge="1" parent="1" source="YwqZ9izYmUvDD3IAqNH3-43" target="YwqZ9izYmUvDD3IAqNH3-43">
          <mxGeometry relative="1" as="geometry" />
        </mxCell>
        <mxCell id="NKX4KF4Ma1qlsxODVfHI-38" value="" style="edgeStyle=orthogonalEdgeStyle;rounded=0;orthogonalLoop=1;jettySize=auto;html=1;exitX=1;exitY=0.75;exitDx=0;exitDy=0;" edge="1" parent="1" source="YwqZ9izYmUvDD3IAqNH3-15" target="YwqZ9izYmUvDD3IAqNH3-42">
          <mxGeometry relative="1" as="geometry">
            <mxPoint x="769.5" y="1142.5" as="targetPoint" />
            <mxPoint x="380" y="363" as="sourcePoint" />
          </mxGeometry>
        </mxCell>
        <mxCell id="YwqZ9izYmUvDD3IAqNH3-42" value="NOT&lt;br&gt;continueResponse&lt;div&gt;=&lt;/div&gt;&lt;div&gt;&quot;yes&quot;&lt;/div&gt;" style="rhombus;whiteSpace=wrap;html=1;" parent="1" vertex="1">
          <mxGeometry x="690" y="940" width="150" height="135" as="geometry" />
        </mxCell>
        <mxCell id="YwqZ9izYmUvDD3IAqNH3-44" value="no" style="rounded=0;whiteSpace=wrap;html=1;" parent="1" vertex="1">
          <mxGeometry x="840" y="1010" width="40" height="30" as="geometry" />
        </mxCell>
      </root>
    </mxGraphModel>
  </diagram>
</mxfile>
